<svg width="20" height="15" viewBox="0 0 20 15" fill="none" xmlns="http://www.w3.org/2000/svg">
<path fill-rule="evenodd" clip-rule="evenodd" d="M6.48635 0.0983654C5.43083 0.32705 4.16184 0.731626 3.3368 1.10239C3.0591 1.22721 3.00557 1.27089 2.863 1.48883C1.32508 3.83934 0.413464 6.25331 0.0976962 8.81134C0.00992842 9.52222 -0.0303145 11.3113 0.0260255 11.9955C0.0607749 12.4171 0.0832173 12.5239 0.147478 12.5732C0.803075 13.0761 2.27486 13.9157 3.22097 14.3265C3.92737 14.6332 4.90065 14.99 5.05758 14.9997C5.1456 15.0052 5.21246 14.9324 5.48351 14.5363C5.66032 14.2779 5.89782 13.8944 6.01131 13.6841L6.21768 13.3016L6.0326 13.2314C5.74447 13.122 4.60336 12.5605 4.57398 12.5136C4.55954 12.4905 4.63138 12.4041 4.73359 12.3215L4.91947 12.1713L5.36794 12.3566C8.35553 13.5911 11.6386 13.5932 14.6169 12.3625L15.0611 12.179L15.2345 12.3048C15.3299 12.3739 15.4079 12.4558 15.4079 12.4868C15.4079 12.5442 14.5208 13.0046 14.0764 13.1778C13.9413 13.2305 13.8208 13.2895 13.8086 13.3091C13.7807 13.3536 14.1948 14.0775 14.5578 14.6184C14.8825 15.1024 14.7733 15.0907 15.7273 14.7443C16.9789 14.2899 18.151 13.7026 19.235 12.9868C19.5308 12.7914 19.8074 12.6055 19.8495 12.5737C19.9664 12.4856 20.0209 11.6466 19.9927 10.3653C19.9544 8.62096 19.7033 7.15717 19.1739 5.59162C18.7263 4.26811 17.9293 2.66509 17.1489 1.51877L16.9449 1.21902L16.4676 1.02033C15.7836 0.735616 15.1627 0.523143 14.4557 0.332006C13.7183 0.132595 12.9243 -0.0283453 12.8382 0.00420387C12.8042 0.0170976 12.6663 0.251032 12.532 0.524109C12.3976 0.797144 12.2854 1.02352 12.2828 1.02713C12.2801 1.03078 12.0863 1.00722 11.8521 0.974842C11.1315 0.875136 9.45393 0.852751 8.6225 0.931709C8.22812 0.969172 7.86401 1.0097 7.81338 1.0218C7.73179 1.04133 7.69223 0.98509 7.4658 0.528183C7.1649 -0.0790382 7.21127 -0.0586687 6.48635 0.0983654ZM6.97096 6.29044C7.63414 6.41451 8.21534 6.98153 8.40697 7.69148C8.54256 8.19362 8.44496 8.90122 8.17808 9.35166C7.89348 9.83192 7.35044 10.1822 6.82464 10.2247C5.37884 10.3415 4.41088 8.64457 5.12759 7.24965C5.35682 6.8035 5.83769 6.42232 6.31601 6.30762C6.58689 6.24265 6.69957 6.23971 6.97096 6.29044ZM13.9198 6.37242C14.3349 6.52799 14.7033 6.87423 14.9284 7.32038C15.2027 7.86427 15.1806 8.67968 14.8756 9.27342C14.6059 9.79819 14.0265 10.1888 13.4583 10.2289C12.6511 10.2859 11.9284 9.75766 11.6337 8.89534C11.5192 8.56048 11.5297 7.87212 11.6544 7.53378C12.0235 6.53193 13.0041 6.02925 13.9198 6.37242Z" fill="white"/>
</svg>
